<svg data-v-423bf9ae="" xmlns="http://www.w3.org/2000/svg" viewBox="0 0 571.3477274148191 163" class="iconAbove"><!----><!----><!----><g data-v-423bf9ae="" id="697992c6-37c6-4323-9078-39c1144efa22" fill="white" transform="matrix(4.991680342345265,0,0,4.991680342345265,-4.891843789306847,103.64892140093494)"><path d="M5.14 10.01L6.24 8.83L6.24 1.51L4.62-0.10L2.58-0.10L0.98 1.51L0.98 8.83L2.58 10.54L4.05 10.54L4.87 11.89L5.87 11.23ZM4.07 9.27L3.11 9.27L2.25 8.33L2.25 2.03L3.11 1.18L4.07 1.18L4.94 2.03L4.94 8.33ZM8.27 0L8.27 8.88L9.79 10.56L11.76 10.56L13.26 8.88L13.26 0L11.98 0L11.98 8.40L11.19 9.28L10.35 9.28L9.55 8.40L9.55 0ZM14.52 10.50L15.81 10.50L16.21 7.77L18.40 7.77L18.80 10.50L20.09 10.50L18.54 0.01L16.07 0.01ZM18.21 6.50L16.39 6.50L17.16 1.29L17.43 1.29ZM21.45 0.01L21.45 10.50L25.89 10.50L25.89 9.28L22.72 9.28L22.72 0.01ZM28.49 10.50L28.49 0C27.40 0 28.31 0 27.22 0L27.22 10.50ZM31.53 10.50L32.80 10.50L32.80 1.15L34.66 1.15L34.66 0L29.68 0L29.68 1.15L31.53 1.15ZM38.84 6.61L41.24 0L39.90 0L39.05 2.39L38.21 5.12L37.38 2.44L36.53 0L35.15 0L37.56 6.61L37.56 10.50L38.84 10.50ZM48.73 3.09L50.01 3.09L50.01 1.51L48.48-0.08L46.49-0.08L44.97 1.51L44.97 8.88L46.48 10.57L48.48 10.57L50.01 8.88L50.01 7.22L48.73 7.24L48.73 8.40L47.92 9.30L47.04 9.30L46.24 8.40L46.24 2.02L47.03 1.19L47.94 1.19L48.73 2.02ZM57.02 1.46L55.44-0.13L53.44-0.13L51.86 1.46L51.86 8.86L53.42 10.54L55.44 10.54L57.02 8.86ZM54.89 9.28L53.97 9.28L53.12 8.37L53.12 1.97L53.96 1.13L54.91 1.13L55.75 1.97L55.75 8.37ZM59.01 10.50L60.28 10.50L60.28 5.46L60.13 2.25L60.17 2.25L61.08 5.35L62.72 10.50L64.08 10.50L64.08 0.04L62.80 0.04L62.80 3.72L63.04 7.71L63 7.71L61.92 3.79L60.73 0.04L59.01 0.04ZM67.09 10.50L68.36 10.50L68.36 1.15L70.22 1.15L70.22 0L65.24 0L65.24 1.15L67.09 1.15ZM72.84 1.30L74.13 1.30L74.98 2.16L74.98 4.76L74.12 5.70L72.84 5.70ZM72.84 6.97L73.95 6.97L75.59 10.50L76.99 10.50L75.12 6.48L76.26 5.26L76.26 1.64L74.65 0.01L71.57 0.01L71.57 10.50L72.84 10.50ZM77.64 10.50L78.93 10.50L79.34 7.77L81.52 7.77L81.93 10.50L83.22 10.50L81.66 0.01L79.20 0.01ZM81.34 6.50L79.52 6.50L80.29 1.29L80.56 1.29ZM88.30 3.09L89.57 3.09L89.57 1.51L88.05-0.08L86.06-0.08L84.53 1.51L84.53 8.88L86.04 10.57L88.05 10.57L89.57 8.88L89.57 7.22L88.30 7.24L88.30 8.40L87.49 9.30L86.60 9.30L85.81 8.40L85.81 2.02L86.59 1.19L87.50 1.19L88.30 2.02ZM92.47 10.50L93.74 10.50L93.74 1.15L95.61 1.15L95.61 0L90.62 0L90.62 1.15L92.47 1.15ZM102.07 1.46L100.49-0.13L98.49-0.13L96.91 1.46L96.91 8.86L98.48 10.54L100.49 10.54L102.07 8.86ZM99.95 9.28L99.02 9.28L98.17 8.37L98.17 1.97L99.01 1.13L99.96 1.13L100.80 1.97L100.80 8.37ZM105.24 1.30L106.53 1.30L107.38 2.16L107.38 4.76L106.51 5.70L105.24 5.70ZM105.24 6.97L106.34 6.97L107.98 10.50L109.38 10.50L107.52 6.48L108.65 5.26L108.65 1.64L107.04 0.01L103.96 0.01L103.96 10.50L105.24 10.50ZM111.62 7.03L110.36 7.03L110.36 8.95L111.90 10.57L113.90 10.57L115.44 8.95L115.44 6.12L111.69 3.49L111.69 2.03L112.46 1.20L113.34 1.20L114.13 2.03L114.13 3.12L115.39 3.12L115.39 1.51L113.89-0.06L111.93-0.06L110.43 1.51L110.43 4.14L114.20 6.78L114.20 8.44L113.37 9.31L112.45 9.31L111.62 8.44Z"></path></g><!----><g data-v-423bf9ae="" id="511cc8fe-9678-432d-bf59-689e28aab647" transform="matrix(1.508472536776473,0,0,1.508472536776473,211.61136625654962,-25.65267628935362)" stroke="none" fill="white"><path d="M97.656 48.478l-9.73-3.469-10.891-3.513-8.393 2.806-16.648-27.285-38.977 14.236V26.31h-2.029v-8.589H5.161v8.339H2.53v12.543h-.94V48.92l2.756-.001v27.76h27.565V62.535c0-1.725 1.348-3.123 3.008-3.123h4.26c1.66 0 3.008 1.398 3.008 3.123V76.68H97.82V48.478h-.164zm-80.341 9.87h-4.288v-11.02h4.288v11.02zm6.015.176h-4.288V47.507h4.288v11.017zm31.009-.088h-4.287V47.417h4.287v11.019zm6.016.177h-4.289V47.595h4.289v11.018zm11.092-2.338H94.24v2.16H71.447v-2.16zm0 3.551H94.24v2.159H71.447v-2.159zm0 3.514H94.24v2.16H71.447v-2.16zm22.834 9.052H71.487v-2.159h22.794v2.159zm0-3.384H71.487v-2.159h22.794v2.159z"></path></g><!----></svg>